<svg height="204.5824589619474" width="350.00000000000006" style="width: 350px; height: 204.582px; position: absolute; top: 50%; left: 50%; transform: translate(-50%, -50%) scale(1); z-index: 0; cursor: pointer;"><defs id="SvgjsDefs1001"></defs><g id="SvgjsG1007" featurekey="symbolContainer" transform="matrix(1,0,0,1,97,0)" fill="#8d010f">    <rect width="157" height="124"></rect></g><g id="SvgjsG1008" featurekey="monogramFeature-0" transform="matrix(2.1748843037707757,0,0,2.1748843037707757,110.62911903513023,-21.82948253671521)" fill="#eeeeee"><path d="M56.572 60 l-11.162 0 l-2.8125 -30.352 l-9.1113 30.352 l-7.3828 0 l-9.1113 -30.498 l-2.8418 30.498 l-11.221 0 l3.7793 -43.066 l16.318 0 l6.7383 22.002 l6.8262 -22.002 l16.26 0 z"></path></g><g id="SvgjsG1009" featurekey="nameFeature-0" transform="matrix(1.0356255439973352,0,0,1.0356255439973352,-3.314000061787352,131.98674526987008)" fill="#d72323"><path d="M29.92 11.600000000000001 l0.48 0 l0 28.4 l-4.28 0 l0 -17.12 l-9.2 11.48 l-0.24 0 l-9.2 -11.48 l0 17.12 l-4.28 0 l0 -28.4 l0.48 0 l13.12 15.88 z M63.36 12 l-9.8 15.64 l0 12.36 l-4.32 0 l0 -12.36 l-9.8 -15.64 l4.88 0 l7.08 11.4 l7.08 -11.4 l4.88 0 z M51.44 26.6 l-0.04 -0.04 l-0.04 0.04 l0.08 0 z M99.12 11.600000000000001 l0.48 0 l0 28.4 l-4.28 0 l0 -17.12 l-9.2 11.48 l-0.24 0 l-9.2 -11.48 l0 17.12 l-4.28 0 l0 -28.4 l0.48 0 l13.12 15.88 z M128.72 40 l-2.2 -5.12 l-11.44 0 l-2.2 5.12 l-4.64 0 l12.32 -28.4 l0.48 0 l12.32 28.4 l-4.64 0 z M116.80000000000001 30.880000000000003 l8 0 l-4 -9.28 z M162.72000000000003 22.2 c0 4.56 -1.96 8.24 -6 9.6 l5.76 8.2 l-5.16 0 l-5.36 -7.6 l-5.64 0 l0 7.6 l-4.32 0 l0 -28 l10.88 0 c6.64 0 9.84 4.36 9.84 10.2 z M146.32000000000002 16.08 l0 12.24 l6.44 0 c4.04 0 5.64 -2.88 5.64 -6.12 s-1.6 -6.12 -5.64 -6.12 l-6.44 0 z M170.56000000000003 12 l4.72 0 l7.72 18.84 l7.72 -18.84 l4.72 0 l-12.2 28.4 l-0.48 0 z M221.36 35.84 l0.28 4.16 l-17.16 0 l0 -28 l16.36 0 l0.32 4.16 l-12.36 0 l0 5.96 l8.16 0 l0 4.16 l-8.16 0 l0 9.56 l12.56 0 z M235.80000000000004 35.84 l11.4 0 l-0.28 4.16 l-15.44 0 l0 -28 l4.32 0 l0 23.84 z M260.56 35.84 l11.4 0 l-0.28 4.16 l-15.44 0 l0 -28 l4.32 0 l0 23.84 z M281 40 l0 -28 l4.32 0 l0 28 l-4.32 0 z M295.16 37.12 c1.68 1.56 5.44 3.28 9.16 3.28 c5.76 0 9.28 -2.84 9.28 -7.48 c0 -3.84 -1.92 -6.12 -7.56 -9.44 c-4.4 -2.6 -5.44 -3.36 -5.44 -4.88 c0 -1.6 1.44 -2.84 4.16 -2.84 c1.52 0 3.76 0.68 5 1.52 l2.32 -3.52 c-1.84 -1.24 -5 -2.16 -7.28 -2.16 c-5.32 0 -8.8 3.04 -8.8 7.04 c0 3.52 1.68 5.28 6.88 8.16 c4.2 2.32 6.12 4.28 6.12 6.04 c0 2.16 -1.72 3.24 -4.68 3.24 c-2.8 0 -5.44 -1.32 -6.68 -2.44 z M341.16 16.16 l-7.88 0 l0 23.84 l-4.32 0 l0 -23.84 l-7.92 0 l0.28 -4.16 l19.56 0 z"></path></g><g id="SvgjsG1010" featurekey="sloganFeature-0" transform="matrix(1.2709998916018443,0,0,1.2709998916018443,31.822500270995388,179.7471223406521)" fill="#3a4750"><path d="M11.14 18.76 l0 -8.92 l-3.18 9 c-0.18 0.5 -0.84 0.62 -1.04 0 l-3.08 -9 l0 8.92 c0 0.42 -0.32 0.64 -0.66 0.64 s-0.68 -0.22 -0.68 -0.64 l0 -10.74 c0 -0.38 0.28 -0.66 0.68 -0.66 l0.64 0 c0.44 0 0.68 0.32 0.78 0.62 c0.96 2.86 1.84 5.4 2.82 8.28 l2.9 -8.34 c0.1 -0.28 0.28 -0.56 0.7 -0.56 l0.8 0 c0.58 0 0.66 0.32 0.66 0.64 l0 10.76 c0 0.42 -0.34 0.64 -0.68 0.64 s-0.66 -0.22 -0.66 -0.64 z  M19.767 18.78 l0 -10.78 c0 -0.42 0.32 -0.64 0.64 -0.64 s0.66 0.22 0.66 0.64 l0 10.78 c0 0.86 -1.3 0.86 -1.3 0 z M38.041000000000004 18.76 l0 -10.76 c0 -0.42 0.32 -0.64 0.64 -0.64 s0.66 0.22 0.66 0.64 l0 10.06 l3.98 0 c0.44 0 0.68 0.34 0.68 0.68 s-0.24 0.66 -0.68 0.66 l-4.62 0 c-0.4 0 -0.66 -0.32 -0.66 -0.64 z M50.208000000000006 18.78 l0 -10.78 c0 -0.42 0.32 -0.64 0.64 -0.64 s0.66 0.22 0.66 0.64 l0 10.78 c0 0.86 -1.3 0.86 -1.3 0 z M58.475 17.68 c-0.44 -0.82 0.68 -1.42 1.2 -0.6 c0.26 0.42 1.04 1.14 2.28 1.14 c0.52 0 1.82 -0.38 2 -1.86 c0.12 -0.9 -0.74 -1.78 -2.22 -2.52 c-2.08 -0.98 -3.66 -1.84 -3.66 -3.56 c0 -2.04 1.72 -3 3.56 -3 c1.66 0 2.58 1.02 2.9 1.54 c0.46 0.74 -0.54 1.46 -1.1 0.74 c-0.28 -0.36 -0.82 -0.96 -1.8 -0.96 c-1.1 0 -2.24 0.52 -2.24 1.68 c0 0.92 1.02 1.44 2.54 2.16 c1.78 0.88 3.64 1.74 3.36 4.08 c-0.22 1.84 -1.62 3.02 -3.34 3.02 c-1.3 0 -2.9 -0.7 -3.48 -1.86 z M71.64200000000001 7.359999999999999 l6.04 0 c0.42 0 0.62 0.34 0.62 0.68 s-0.2 0.66 -0.62 0.66 l-2.28 0 l0 10.06 c0 0.42 -0.34 0.64 -0.68 0.64 s-0.66 -0.22 -0.66 -0.64 l0 -10.06 l-2.42 0 c-0.42 0 -0.62 -0.32 -0.62 -0.66 s0.2 -0.68 0.62 -0.68 z M90.64900000000002 18.86 l-0.78 -2.54 l-3.72 0 l-0.74 2.5 c-0.26 0.86 -1.58 0.6 -1.3 -0.28 c1.04 -3.5 2.06 -7.06 3.08 -10.6 c0.12 -0.38 0.44 -0.58 0.76 -0.58 c0.3 0 0.62 0.2 0.74 0.58 l3.18 10.6 c0.22 0.76 -0.96 1.18 -1.22 0.32 z M87.989 10.06 l-1.44 4.92 l2.94 0 c-0.5 -1.68 -0.96 -3.12 -1.5 -4.92 z M108.30300000000001 18.78 l0 -10.76 c0 -0.54 0.38 -0.66 0.66 -0.66 l3.2 0 c2.64 0 3.94 1.26 3.94 3.74 l0 5.12 c0 1.56 -1.22 3.2 -3.88 3.2 l-3.26 0 c-0.28 0 -0.66 -0.16 -0.66 -0.64 z M114.78300000000002 16.22 l0 -5.12 c0 -1.64 -0.88 -2.4 -2.62 -2.4 l-2.54 0 l0 9.42 l2.6 0 c1.22 0 2.56 -0.66 2.56 -1.9 z M123.11000000000001 18.7 l0 -10.64 c0 -0.46 0.36 -0.7 0.7 -0.7 l4.6 0 c0.44 0 0.66 0.32 0.66 0.66 s-0.22 0.68 -0.66 0.68 l-3.96 0 l0 3.88 l3.14 0 c0.46 0 0.68 0.32 0.68 0.66 s-0.24 0.7 -0.68 0.7 l-3.14 0 l0 4.14 l3.96 0 c0.42 0 0.64 0.34 0.64 0.66 c0 0.34 -0.22 0.66 -0.64 0.66 l-4.6 0 c-0.34 0 -0.7 -0.12 -0.7 -0.7 z M154.24400000000003 18.76 l0 -8.92 l-3.18 9 c-0.18 0.5 -0.84 0.62 -1.04 0 l-3.08 -9 l0 8.92 c0 0.42 -0.32 0.64 -0.66 0.64 s-0.68 -0.22 -0.68 -0.64 l0 -10.74 c0 -0.38 0.28 -0.66 0.68 -0.66 l0.64 0 c0.44 0 0.68 0.32 0.78 0.62 c0.96 2.86 1.84 5.4 2.82 8.28 l2.9 -8.34 c0.1 -0.28 0.28 -0.56 0.7 -0.56 l0.8 0 c0.58 0 0.66 0.32 0.66 0.64 l0 10.76 c0 0.42 -0.34 0.64 -0.68 0.64 s-0.66 -0.22 -0.66 -0.64 z  M168.73100000000002 18.86 l-0.78 -2.54 l-3.72 0 l-0.74 2.5 c-0.26 0.86 -1.58 0.6 -1.3 -0.28 c1.04 -3.5 2.06 -7.06 3.08 -10.6 c0.12 -0.38 0.44 -0.58 0.76 -0.58 c0.3 0 0.62 0.2 0.74 0.58 l3.18 10.6 c0.22 0.76 -0.96 1.18 -1.22 0.32 z M166.07100000000003 10.06 l-1.44 4.92 l2.94 0 c-0.5 -1.68 -0.96 -3.12 -1.5 -4.92 z M177.978 15.9 l0 2.86 c0 0.44 -0.34 0.64 -0.66 0.64 c-0.34 0 -0.66 -0.2 -0.66 -0.64 l0 -10.74 c0 -0.4 0.22 -0.66 0.66 -0.66 l2.7 0 c0.76 0 3.16 0.22 3.16 2.92 l0 2.5 c0 1.52 -0.56 2.48 -1.84 2.9 l1.36 2.74 c0.28 0.54 -0.14 0.98 -0.58 0.98 c-0.24 0 -0.54 -0.16 -0.7 -0.5 l-1.46 -3 l-1.98 0 z M181.858 12.780000000000001 l0 -2.5 c0 -0.48 -0.18 -1.58 -1.84 -1.58 l-2.04 0 l0 5.86 l1.86 0 c0.98 0 2.02 -0.22 2.02 -1.78 z M190.865 7.800000000000001 l2.62 9.02 l2.74 -8.98 c0.26 -0.86 1.48 -0.52 1.24 0.32 l-3.2 10.68 c-0.1 0.36 -0.42 0.56 -0.76 0.56 s-0.7 -0.2 -0.8 -0.56 l-3.06 -10.66 c-0.26 -0.9 1 -1.16 1.22 -0.38 z M204.032 18.7 l0 -10.64 c0 -0.46 0.36 -0.7 0.7 -0.7 l4.6 0 c0.44 0 0.66 0.32 0.66 0.66 s-0.22 0.68 -0.66 0.68 l-3.96 0 l0 3.88 l3.14 0 c0.46 0 0.68 0.32 0.68 0.66 s-0.24 0.7 -0.68 0.7 l-3.14 0 l0 4.14 l3.96 0 c0.42 0 0.64 0.34 0.64 0.66 c0 0.34 -0.22 0.66 -0.64 0.66 l-4.6 0 c-0.34 0 -0.7 -0.12 -0.7 -0.7 z M216.839 18.76 l0 -10.76 c0 -0.42 0.32 -0.64 0.64 -0.64 s0.66 0.22 0.66 0.64 l0 10.06 l3.98 0 c0.44 0 0.68 0.34 0.68 0.68 s-0.24 0.66 -0.68 0.66 l-4.62 0 c-0.4 0 -0.66 -0.32 -0.66 -0.64 z"></path></g></svg>